<?xml version="1.0" encoding="iso-8859-1"?>
<!-- Generator: Adobe Illustrator 19.0.0, SVG Export Plug-In . SVG Version: 6.00 Build 0)  -->
<svg version="1.1" id="Capa_1" xmlns="http://www.w3.org/2000/svg" xmlns:xlink="http://www.w3.org/1999/xlink" x="0px" y="0px"
	 viewBox="0 0 512.007 512.007" style="enable-background:new 0 0 512.007 512.007;" xml:space="preserve">
<g>
	<g>
		<path d="M377.217,147.066l-39.84-68.58c-3.537-6.248-11.469-8.446-17.717-4.91c-6.248,3.537-8.447,11.469-4.91,17.717
			c0.048,0.085,0.097,0.169,0.147,0.253l39.84,68.58c3.676,6.167,11.656,8.186,17.823,4.51
			C378.629,161.019,380.697,153.215,377.217,147.066z"/>
	</g>
</g>
<g>
	<g>
		<path d="M443.694,144.149c-0.002-0.004-0.005-0.008-0.007-0.012l-70.88-121.97c-7.077-12.114-19.428-20.207-33.36-21.86
			c-22.467-2.643-43.316,12.067-48.36,34.12c-55.297,13.543-105.524,42.722-144.68,84.05c-2.521-0.762-5.104-1.301-7.72-1.61
			c-9.465-1.13-19.04,0.861-27.27,5.67c-21.266,12.341-28.502,39.585-16.161,60.851c0.004,0.006,0.007,0.012,0.011,0.019l70.88,122
			c8.001,13.731,22.698,22.174,38.59,22.17c20.639-0.025,38.527-14.3,43.13-34.42c27.512-6.73,53.914-17.375,78.4-31.61
			c24.493-14.221,46.817-31.885,66.29-52.45c2.521,0.76,5.105,1.295,7.72,1.6c9.47,1.125,19.049-0.873,27.28-5.69
			C448.818,192.657,456.043,165.41,443.694,144.149z M423.097,171.296v-0.01c-1.246,4.755-4.343,8.813-8.6,11.27
			c-3.381,1.974-7.313,2.792-11.2,2.33c-2.642-0.315-5.189-1.177-7.48-2.53c-5.353-3.165-12.197-2.096-16.33,2.55
			c-38.311,43.285-89.562,73.058-146.14,84.9c-6.096,1.279-10.429,6.702-10.33,12.93c0.216,10.182-7.863,18.611-18.045,18.827
			c-6.722,0.142-12.989-3.385-16.355-9.207l-70.88-122c-5.149-8.838-2.16-20.176,6.678-25.326c0.014-0.008,0.028-0.016,0.042-0.024
			c2.753-1.605,5.883-2.451,9.07-2.45c0.712-0.001,1.423,0.039,2.13,0.12c2.645,0.315,5.195,1.177,7.49,2.53
			c5.355,3.163,12.2,2.09,16.33-2.56c38.314-43.276,89.565-73.039,146.14-84.87c6.085-1.286,10.406-6.702,10.31-12.92
			c-0.221-10.182,7.853-18.615,18.035-18.837c6.726-0.146,12.998,3.382,16.365,9.207l70.88,122
			C423.693,161.475,424.374,166.542,423.097,171.296z"/>
	</g>
</g>
<g>
	<g>
		<path d="M305.837,416.206h-2.09c-0.29-0.86-0.59-1.77-0.91-2.75c-6.81-21.2-26.554-35.557-48.82-35.5h-139
			c-22.274-0.053-42.021,14.318-48.82,35.53c-0.32,1-0.62,1.9-0.91,2.75h-2.14c-20.007,0.022-36.222,16.233-36.25,36.24v14.31
			c0.039,20,16.25,36.198,36.25,36.22h242.69c20.011-0.022,36.228-16.239,36.25-36.25v-14.3
			C342.065,432.445,325.848,416.228,305.837,416.206z M316.087,466.796c-0.027,5.643-4.607,10.205-10.25,10.21H63.147
			c-5.659-0.006-10.245-4.591-10.25-10.25l0.01-14.28c0.011-5.655,4.595-10.234,10.25-10.24h11.22c5.406,0,10.247-3.344,12.16-8.4
			c1.06-2.8,2.5-6.63,4.36-12.37c3.362-10.471,13.122-17.557,24.12-17.51h139c10.986-0.028,20.726,7.059,24.08,17.52
			c1.85,5.72,3.3,9.56,4.35,12.36c1.909,5.06,6.752,8.409,12.16,8.41h11.23c5.659,0.005,10.245,4.591,10.25,10.25V466.796z"/>
	</g>
</g>
<g>
	<g>
		<path d="M486.427,408.566l-110.73-150.45c-4.304-5.747-12.452-6.916-18.198-2.612c-5.678,4.253-6.898,12.273-2.742,18.022
			l110.76,150.48c12.728,17.335,8.993,41.706-8.342,54.434c-17.335,12.728-41.706,8.993-54.434-8.342
			c-1.643-2.238-3.043-4.646-4.174-7.182l-75.82-170.77c-2.62-6.684-10.164-9.979-16.848-7.359
			c-6.684,2.62-9.979,10.164-7.358,16.848c0.143,0.364,0.302,0.721,0.476,1.071l75.83,170.73
			c9.313,20.978,29.012,35.479,51.81,38.14l-0.04-0.01c2.456,0.289,4.927,0.436,7.4,0.44c35.865,0.063,64.991-28.961,65.053-64.827
			C499.094,433.288,494.663,419.754,486.427,408.566z"/>
	</g>
</g>
<g>
	<g>
		<path d="M77.687,279.416h-51.75c-7.18,0-13,5.82-13,13s5.82,13,13,13h51.75c7.18,0,13-5.82,13-13S84.866,279.416,77.687,279.416z"
			/>
	</g>
</g>
<g>
	<g>
		<path d="M93.417,240.696l-48.34-26.23c-6.31-3.425-14.202-1.086-17.627,5.224c-0.001,0.002-0.002,0.004-0.003,0.006
			c-3.427,6.309-1.091,14.202,5.218,17.629c0.001,0,0.002,0.001,0.002,0.001l48.35,26.22c6.355,3.341,14.215,0.898,17.556-5.457
			C101.852,251.852,99.565,244.139,93.417,240.696z"/>
	</g>
</g>
<g>
	<g>
		<path d="M97.998,326.349c-3.459-5.878-10.872-8.084-16.981-5.053l-48.35,26.22c-6.313,3.42-8.657,11.31-5.237,17.623
			c2.275,4.2,6.671,6.813,11.447,6.807h0.01c2.163-0.001,4.291-0.544,6.19-1.58l48.31-26.22
			C99.575,340.505,101.639,332.537,97.998,326.349z"/>
	</g>
</g>
<g>
	<g>
		<path d="M224.017,236.006l-39.8-68.54c-3.677-6.167-11.656-8.186-17.823-4.509c-6.069,3.618-8.137,11.42-4.657,17.569l39.84,68.58
			c3.836,6.069,11.865,7.88,17.934,4.045C225.281,249.505,227.248,242.018,224.017,236.006z"/>
	</g>
</g>
<g>
</g>
<g>
</g>
<g>
</g>
<g>
</g>
<g>
</g>
<g>
</g>
<g>
</g>
<g>
</g>
<g>
</g>
<g>
</g>
<g>
</g>
<g>
</g>
<g>
</g>
<g>
</g>
<g>
</g>
</svg>
