<?xml version="1.0" encoding="UTF-8" standalone="no"?>
<!-- Created with Inkscape (http://www.inkscape.org/) -->

<svg
   version="1.1"
   id="svg8793"
   xml:space="preserve"
   width="682.66669"
   height="682.66669"
   viewBox="0 0 682.66669 682.66669"
   xmlns="http://www.w3.org/2000/svg"
   xmlns:svg="http://www.w3.org/2000/svg"><defs
     id="defs8797"><clipPath
       clipPathUnits="userSpaceOnUse"
       id="clipPath8807"><path
         d="M 0,512 H 512 V 0 H 0 Z"
         id="path8805" /></clipPath></defs><g
     id="g8799"
     transform="matrix(1.3333333,0,0,-1.3333333,0,682.66667)"><g
       id="g8801"><g
         id="g8803"
         clip-path="url(#clipPath8807)"><g
           id="g8809"
           transform="translate(163.8428,411.3857)"><path
             d="M 0,0 C 44.935,26.725 98.968,32.264 147.673,16.616"
             style="fill:none;stroke:#000000;stroke-width:20;stroke-linecap:round;stroke-linejoin:round;stroke-miterlimit:10;stroke-dasharray:none;stroke-opacity:1"
             id="path8811" /></g><g
           id="g8813"
           transform="translate(84.249,200.1357)"><path
             d="M 0,0 C -15.815,48.785 -10.347,102.968 16.407,148.021"
             style="fill:none;stroke:#000000;stroke-width:20;stroke-linecap:round;stroke-linejoin:round;stroke-miterlimit:10;stroke-dasharray:none;stroke-opacity:1"
             id="path8815" /></g><g
           id="g8817"
           transform="translate(427.9521,311.8887)"><path
             d="m 0,0 c 20.285,-62.542 5.587,-133.96 -44.095,-183.642 -49.675,-49.673 -121.078,-64.375 -183.614,-44.103"
             style="fill:none;stroke:#000000;stroke-width:20;stroke-linecap:round;stroke-linejoin:round;stroke-miterlimit:10;stroke-dasharray:none;stroke-opacity:1"
             id="path8819" /></g><g
           id="g8821"
           transform="translate(466.6074,350.3105)"><path
             d="M 0,0 19.544,-10.104 C 34.972,-18.078 40.2,-37.592 30.827,-52.213 L 14.042,-78.396 c -6.218,-9.699 -6.218,-22.13 0,-31.83 l 16.785,-26.182 c 9.373,-14.621 4.145,-34.135 -11.283,-42.11 L -8.084,-192.8 c -10.234,-5.291 -16.45,-16.057 -15.915,-27.565 l 1.445,-31.069 c 0.807,-17.347 -13.478,-31.632 -30.826,-30.826 l -31.068,1.446 c -11.508,0.535 -22.275,-5.681 -27.565,-15.915 l -14.283,-27.628 c -7.975,-15.428 -27.488,-20.657 -42.109,-11.284 l -26.183,16.786 c -9.699,6.217 -22.131,6.217 -31.83,0 l -26.183,-16.786 c -14.62,-9.373 -34.134,-4.144 -42.109,11.284 l -10.129,19.591"
             style="fill:none;stroke:#000000;stroke-width:20;stroke-linecap:round;stroke-linejoin:round;stroke-miterlimit:10;stroke-dasharray:none;stroke-opacity:1"
             id="path8823" /></g><g
           id="g8825"
           transform="translate(45.8438,161.5645)"><path
             d="m 0,0 -19.786,10.229 c -15.428,7.974 -20.656,27.488 -11.283,42.109 l 16.785,26.183 c 6.219,9.699 6.219,22.13 0,31.83 l -16.785,26.182 c -9.373,14.621 -4.145,34.135 11.283,42.11 l 27.628,14.282 c 10.234,5.291 16.45,16.057 15.915,27.565 l -1.445,31.069 c -0.807,17.347 13.478,31.632 30.826,30.826 l 31.068,-1.446 c 11.509,-0.535 22.274,5.681 27.565,15.915 l 14.283,27.628 c 7.974,15.428 27.489,20.657 42.109,11.284 l 26.183,-16.786 c 9.699,-6.217 22.131,-6.217 31.83,0 l 26.182,16.786 c 14.621,9.373 34.135,4.144 42.11,-11.284 l 10.229,-19.788"
             style="fill:none;stroke:#000000;stroke-width:20;stroke-linecap:round;stroke-linejoin:round;stroke-miterlimit:10;stroke-dasharray:none;stroke-opacity:1"
             id="path8827" /></g><g
           id="g8829"
           transform="translate(373.8936,488.9785)"><path
             d="m 0,0 -350.768,-350.768 c -17.362,-17.362 -17.362,-45.511 0,-62.874 l 52.316,-52.315 c 17.362,-17.362 45.512,-17.362 62.874,0 l 350.767,350.768 c 17.363,17.362 17.363,45.511 0,62.874 L 62.874,0 C 45.512,17.362 17.362,17.362 0,0 Z"
             style="fill:none;stroke:#000000;stroke-width:20;stroke-linecap:round;stroke-linejoin:round;stroke-miterlimit:10;stroke-dasharray:none;stroke-opacity:1"
             id="path8831" /></g><g
           id="g8833"
           transform="translate(183.4062,239.8701)"><path
             d="m 0,0 56.52,-56.521 c 0.555,0.338 14.142,14.143 14.142,14.143"
             style="fill:none;stroke:#000000;stroke-width:20;stroke-linecap:round;stroke-linejoin:round;stroke-miterlimit:10;stroke-dasharray:none;stroke-opacity:1"
             id="path8835" /></g><g
           id="g8837"
           transform="translate(64.2305,120.6943)"><path
             d="M 0,0 -16.821,-16.821 39.747,-73.39 56.568,-56.568"
             style="fill:none;stroke:#000000;stroke-width:20;stroke-linecap:round;stroke-linejoin:round;stroke-miterlimit:10;stroke-dasharray:none;stroke-opacity:1"
             id="path8839" /></g><g
           id="g8841"
           transform="translate(91.2744,91.1699)"><path
             d="M 0,0 -15.581,-15.581"
             style="fill:none;stroke:#000000;stroke-width:20;stroke-linecap:round;stroke-linejoin:round;stroke-miterlimit:10;stroke-dasharray:none;stroke-opacity:1"
             id="path8843" /></g><g
           id="g8845"
           transform="translate(408.2314,464.6953)"><path
             d="M 0,0 -16.821,-16.821 39.747,-73.39 56.568,-56.568"
             style="fill:none;stroke:#000000;stroke-width:20;stroke-linecap:round;stroke-linejoin:round;stroke-miterlimit:10;stroke-dasharray:none;stroke-opacity:1"
             id="path8847" /></g><g
           id="g8849"
           transform="translate(435.2754,435.1709)"><path
             d="M 0,0 -15.581,-15.581"
             style="fill:none;stroke:#000000;stroke-width:20;stroke-linecap:round;stroke-linejoin:round;stroke-miterlimit:10;stroke-dasharray:none;stroke-opacity:1"
             id="path8851" /></g><g
           id="g8853"
           transform="translate(209.6328,175.3818)"><path
             d="m 0,0 c 4.547,-8.421 3.264,-19.158 -3.851,-26.272 -8.679,-8.681 -22.753,-8.681 -31.433,0 l -25.135,25.134 c -8.681,8.68 -8.681,22.753 0,31.434 7.127,7.127 17.889,8.402 26.316,3.826"
             style="fill:none;stroke:#000000;stroke-width:20;stroke-linecap:round;stroke-linejoin:round;stroke-miterlimit:10;stroke-dasharray:none;stroke-opacity:1"
             id="path8855" /></g><g
           id="g8857"
           transform="translate(88.4707,144.9346)"><path
             d="M 0,0 88.009,-25.128"
             style="fill:none;stroke:#000000;stroke-width:20;stroke-linecap:round;stroke-linejoin:round;stroke-miterlimit:10;stroke-dasharray:none;stroke-opacity:1"
             id="path8859" /></g><g
           id="g8861"
           transform="translate(117.6992,174.1631)"><path
             d="M 0,0 25.083,-88.054"
             style="fill:none;stroke:#000000;stroke-width:20;stroke-linecap:round;stroke-linejoin:round;stroke-miterlimit:10;stroke-dasharray:none;stroke-opacity:1"
             id="path8863" /></g><g
           id="g8865"
           transform="translate(214.2578,270.7217)"><path
             d="m 0,0 42.489,-42.489 c 5.29,-5.29 11.476,-6.228 18.782,-4.617 3.558,0.783 7.288,2.537 10.701,5.94 2.955,2.947 4.738,6.098 5.75,9.164 2.579,7.812 1.919,15.097 -3.898,20.913 L 31.367,31.368"
             style="fill:none;stroke:#000000;stroke-width:20;stroke-linecap:round;stroke-linejoin:round;stroke-miterlimit:10;stroke-dasharray:none;stroke-opacity:1"
             id="path8867" /></g><g
           id="g8869"
           transform="translate(305.8613,350.6953)"><path
             d="m 0,0 c 0,0 -18.683,-1.618 -27.047,-17.194 -7.68,-14.302 3.456,-28.513 16.592,-25.745 0,0 11.283,4.322 23.13,9.784 28.516,13.147 39.697,-15.981 22.927,-32.751 -8.399,-8.399 -19.125,-11.769 -28.099,-11.327"
             style="fill:none;stroke:#000000;stroke-width:20;stroke-linecap:round;stroke-linejoin:round;stroke-miterlimit:10;stroke-dasharray:none;stroke-opacity:1"
             id="path8871" /></g><g
           id="g8873"
           transform="translate(321.5986,378.0625)"><path
             d="M 0,0 56.568,-56.568"
             style="fill:none;stroke:#000000;stroke-width:20;stroke-linecap:round;stroke-linejoin:round;stroke-miterlimit:10;stroke-dasharray:none;stroke-opacity:1"
             id="path8875" /></g><g
           id="g8877"
           transform="translate(340.0762,396.54)"><path
             d="m 0,0 71.822,-39.616 c 1.478,-0.804 2.814,0.553 1.991,2.024 L 33.594,33.386"
             style="fill:none;stroke:#000000;stroke-width:20;stroke-linecap:round;stroke-linejoin:round;stroke-miterlimit:10;stroke-dasharray:none;stroke-opacity:1"
             id="path8879" /></g><g
           id="g8881"
           transform="translate(128.2734,383.8311)"><path
             d="M 0,0 V 0"
             style="fill:none;stroke:#000000;stroke-width:20;stroke-linecap:round;stroke-linejoin:round;stroke-miterlimit:10;stroke-dasharray:none;stroke-opacity:1"
             id="path8883" /></g></g></g></g></svg>
