<svg id="Layer_1" enable-background="new 0 0 66 66" viewBox="0 0 66 66" xmlns="http://www.w3.org/2000/svg"><g><path d="m21.64 16.78c.12.07.25.1.37.1.25 0 .48-.12.62-.35.61-1.02 2.28-1.02 2.77-1 .36.02.71.05 1.09.09.96.1 1.95.2 2.96-.04 1.25-.3 2.23-1.05 3.17-1.78.63-.48 1.22-.93 1.86-1.25 1.06-.52 2.27-.66 3.55-.81.45-.05.89-.1 1.33-.17 2.44-.38 4.1-1.32 4.93-2.8.2-.35.07-.79-.28-.99s-.79-.07-.99.28c-.75 1.33-2.52 1.86-3.88 2.07-.42.07-.85.12-1.28.17-1.34.16-2.73.32-4.01.94-.78.38-1.45.9-2.11 1.4-.87.66-1.68 1.29-2.63 1.52-.77.19-1.6.1-2.47.01-.38-.04-.78-.08-1.17-.1-1.89-.09-3.37.53-4.08 1.7-.2.36-.09.8.25 1.01z"/><path d="m40.43 18.04c-1.34.16-2.73.32-4.01.94-.78.38-1.45.9-2.11 1.4-.87.66-1.68 1.29-2.63 1.52-.77.18-1.59.1-2.47.01-.38-.04-.78-.08-1.17-.1-1.89-.09-3.37.53-4.08 1.7-.21.34-.1.79.25.99.12.07.25.1.37.1.25 0 .49-.12.62-.35.61-1.02 2.27-1.02 2.77-1 .36.02.71.05 1.09.09.96.1 1.95.2 2.96-.04 1.25-.3 2.23-1.05 3.17-1.78.62-.48 1.22-.93 1.86-1.25 1.06-.52 2.27-.66 3.55-.81.45-.05.89-.1 1.33-.17 2.44-.38 4.1-1.32 4.93-2.8.2-.35.07-.79-.28-.99s-.79-.07-.99.28c-.75 1.33-2.52 1.86-3.88 2.07-.43.09-.86.14-1.28.19z"/><path d="m64.21 36.51c.32-4.67-1.49-8.77-4.96-11.25-1.78-1.27-3.85-2.01-6.02-2.21-.53-.1-1.08-.16-1.62-.2.52-3.5.9-7.94-.28-12.12-1.02-3.6-3.21-6.66-6.01-8.39-1.28-.79-2.86-1.03-4.34-.67l-31.98 7.83c-1.5-.09-3.76.43-5.4 2.2-1.12 1.22-2.32 3.49-1.65 7.38.37 2.15 1.32 4.11 2.24 6.01l.16.32c.87 1.8 1.77 3.66 2.21 5.6.58 2.58.39 5.5-.56 8.68-.68 2.28-1.66 4.44-2.91 6.99-.24.5-.19 1.08.13 1.53.28.39.72.61 1.19.61.07 0 .15-.01.22-.02 1.54-.23 3.14-.41 4.7-.59 1.78-.2 3.6-.42 5.36-.7.26 3.7 1.3 6.9 3.09 9.36 2.41 3.32 6.15 5.37 9.82 7.09.76.35 1.58.53 2.41.53.45 0 .91-.06 1.36-.16l29.93-7.33c.62-.15 1.06-.66 1.12-1.29.02-.22-.01-.43-.07-.63.03-.1.06-.21.07-.32.06-.63-.27-1.21-.84-1.49-2.76-1.31-5.56-2.82-7.68-5.01.41-.07.83-.15 1.23-.27 4.9-1.45 8.72-6.27 9.08-11.48zm-6.99-10.23c3.11 2.22 4.73 5.91 4.43 10.14-.33 4.71-3.76 9.06-8.16 10.35-4.3 1.26-9.34-.48-11.99-4.15-1.84-2.55-2.36-6.63-1.31-10.39.93-3.32 2.93-5.84 5.5-6.93 1.66-.7 3.37-1.05 5.04-1.05 2.35 0 4.6.69 6.49 2.03zm-15.9-23.21c1.1-.27 2.28-.09 3.24.5 2.5 1.54 4.46 4.29 5.38 7.55 1.13 3.99.72 8.32.21 11.71-1.67.07-3.37.45-5.02 1.15-1.13.48-2.17 1.2-3.07 2.1-.08.01-.16.03-.24.04-.42.07-.85.12-1.28.17-1.34.16-2.73.32-4.01.94-.78.38-1.45.9-2.11 1.4-.87.66-1.68 1.29-2.63 1.52-.77.18-1.6.1-2.47.01-.38-.04-.78-.08-1.17-.1-1.89-.09-3.37.53-4.08 1.7-.21.34-.1.79.25.99.12.07.25.1.37.1.25 0 .48-.12.62-.35.61-1.02 2.28-1.02 2.77-1 .36.02.71.05 1.09.09.96.1 1.95.2 2.96-.04 1.25-.3 2.23-1.05 3.17-1.78.63-.48 1.22-.93 1.86-1.25 1.06-.51 2.26-.66 3.54-.81-.82 1.19-1.46 2.58-1.89 4.13-.38 1.36-.57 2.77-.58 4.15-1.06.14-2.12.35-3.12.83-.78.38-1.45.9-2.11 1.4-.87.66-1.68 1.29-2.63 1.52-.77.18-1.6.1-2.48.01-.38-.04-.77-.08-1.17-.1-1.89-.09-3.37.53-4.08 1.7-.21.34-.1.79.25.99.12.07.25.1.37.1.25 0 .49-.12.62-.35.61-1.02 2.27-1.02 2.77-1 .36.02.73.06 1.09.09.96.1 1.95.2 2.96-.04 1.25-.3 2.23-1.05 3.17-1.78.63-.48 1.22-.93 1.86-1.25.78-.38 1.63-.55 2.53-.68.19 2.29.89 4.42 2.06 6.03 2.34 3.24 6.33 5.15 10.29 5.15.53 0 1.06-.04 1.58-.11 2.35 2.77 5.58 4.55 8.77 6.06l.25-.53h.01l-.24.58c0 .01 0 .01-.02.01l-29.95 7.34c-.94.23-1.94.13-2.81-.27-4.05-1.89-7.17-3.74-9.27-6.63-2.58-3.56-2.98-8.12-2.87-11.32.1-2.9.62-5.83 1.13-8.66.2-1.15.41-2.33.59-3.5.55-3.57 1.03-8.22-.21-12.59-1.06-3.75-3.4-6.87-6.31-8.56zm-32.17 43.7c-1.57.18-3.19.36-4.75.6l.11.72-.14-.76c1.29-2.61 2.29-4.84 3-7.21 1.03-3.42 1.23-6.59.59-9.42-.47-2.1-1.41-4.04-2.32-5.91l-.16-.32c-.88-1.81-1.78-3.67-2.11-5.62-.45-2.66-.02-4.73 1.29-6.15 1.22-1.32 3-1.81 4.26-1.73 3.33 1.14 6.11 4.36 7.26 8.44 1.16 4.1.7 8.55.17 11.97-.18 1.16-.39 2.33-.59 3.47-.51 2.88-1.04 5.86-1.15 8.86-.03.81-.02 1.59.02 2.36-1.78.27-3.66.49-5.48.7z"/><path d="m50.66 27.51c-.4 0-.72.33-.72.72v.67c-1.18.29-2.21 1.16-2.63 2.32-.53 1.44-.07 3.2 1.1 4.18.57.48 1.21.74 1.84.99.59.24 1.14.46 1.53.83.61.58.8 1.59.45 2.36-.28.61-.89 1.04-1.54 1.14 0 0 0 0-.01 0-.06 0-.12.01-.18.03-.1.01-.2 0-.3-.01-.81-.1-1.55-.8-1.7-1.63-.07-.39-.45-.65-.85-.58-.39.07-.65.45-.58.85.27 1.42 1.48 2.58 2.88 2.78v1.04c0 .4.32.72.72.72.4 0 .72-.33.72-.72v-1.16c.92-.29 1.73-.96 2.14-1.86.6-1.33.28-3.01-.77-4.01-.59-.56-1.3-.85-1.99-1.12-.55-.22-1.06-.43-1.45-.76-.71-.59-.99-1.7-.67-2.58.32-.87 1.26-1.51 2.14-1.48.9.03 1.79.72 2.06 1.6.12.38.52.6.9.48s.6-.52.48-.9c-.4-1.3-1.55-2.31-2.87-2.57v-.63c.02-.38-.3-.7-.7-.7z"/><path d="m44.23 30.38c-.3-.15-.66-.02-.81.28-1.41 2.86-1.47 6.31-.15 9.23.1.22.32.36.55.36.08 0 .17-.02.25-.05.3-.14.44-.49.3-.8-1.15-2.55-1.1-5.69.14-8.2.14-.32.02-.68-.28-.82z"/><path d="m45.03 27.79-.27.33c-.21.26-.18.64.08.85.11.09.25.14.39.14.17 0 .34-.07.46-.22l.27-.33c.21-.26.18-.64-.08-.85-.25-.21-.63-.17-.85.08z"/><path d="m30.37 57.75c.09.31.38.52.69.52.07 0 .14-.01.21-.03l13.02-3.86c.38-.11.6-.52.49-.9s-.52-.6-.9-.49l-13.02 3.86c-.38.11-.6.51-.49.9z"/><path d="m32.66 53.37c-.22.28-.47.53-.75.76-.31.26-.35.71-.09 1.02.14.17.35.26.56.26.16 0 .33-.05.46-.17.53-.44 1-.97 1.37-1.56.6 0 1.12-.17 1.53-.5.27-.22.46-.49.62-.72.12-.18.24-.34.36-.43.16-.12.42-.2.67-.27l.74-.22c1.05-.31 2.03-.6 3.05-.72.4-.05.68-.41.63-.81s-.41-.68-.81-.63c-1.14.14-2.23.46-3.29.77l-.73.21c-.35.1-.78.23-1.15.52-.29.23-.48.5-.65.74-.03.05-.06.09-.09.13.21-.73.31-1.49.27-2.25-.1-2.15-1.27-4.25-3.06-5.46-1.02-.7-2.54-1.16-3.74-.38-1.3.85-1.4 2.58-1.06 3.91.67 2.64 2.64 4.84 5.16 5.8zm-3.3-8.48c.19-.12.41-.17.64-.17.51 0 1.08.25 1.5.54 1.41.96 2.34 2.62 2.43 4.33.04.86-.13 1.73-.48 2.52-.07-.02-.13-.04-.18-.06-2.09-.76-3.8-2.65-4.35-4.81-.23-.88-.18-1.95.44-2.35z"/></g></svg>