<?xml version="1.0"?>
<svg xmlns="http://www.w3.org/2000/svg" id="Layer_1" data-name="Layer 1" viewBox="0 0 512 512"><path d="M295.109,4.4a7,7,0,0,1,9.1-3.9A222.351,222.351,0,0,1,431.286,132.966a7,7,0,1,1-13.206,4.654A208.347,208.347,0,0,0,299.005,13.5,7,7,0,0,1,295.109,4.4ZM141.227,13.5a7,7,0,0,0-5.206-13A222.469,222.469,0,0,0,8.947,132.963a7,7,0,1,0,13.205,4.66A208.452,208.452,0,0,1,141.227,13.5Zm149.019,32.14A176.118,176.118,0,0,1,386.084,146.3a7,7,0,0,0,13.138-4.843,190.167,190.167,0,0,0-103.485-108.7,7,7,0,1,0-5.491,12.88ZM45.186,150.45a6.991,6.991,0,0,0,8.99-4.147,176.122,176.122,0,0,1,95.839-100.66,7,7,0,1,0-5.491-12.88A190.169,190.169,0,0,0,41.038,141.46,7,7,0,0,0,45.186,150.45Zm458.268,56.442V308.879a25.567,25.567,0,0,1-25.539,25.538H375.5v61.254a15.107,15.107,0,0,0,7.955,13.635,30.6,30.6,0,0,1,15.458,26.474v5.272A25.171,25.171,0,0,1,373.775,466.2h-99.8a54.564,54.564,0,0,1-107.713,0H66.485a25.185,25.185,0,0,1-25.17-25.143V435.78a30.566,30.566,0,0,1,15.468-26.464,15.131,15.131,0,0,0,7.945-13.645v-189.4A156.1,156.1,0,0,1,184.515,55.005v-14.5a34.567,34.567,0,0,1,69.133,0V54.574A156.142,156.142,0,0,1,373.492,181.353H477.915A25.568,25.568,0,0,1,503.454,206.892ZM198.517,52.386a156.207,156.207,0,0,1,21.6-1.505,154.384,154.384,0,0,1,19.53,1.249V40.506a20.565,20.565,0,0,0-41.129,0ZM259.73,466.2H180.5a40.573,40.573,0,0,0,79.228,0ZM361.5,395.671V334.417H344.966C336.648,357.61,325.7,364.08,296.422,372.6a7,7,0,0,1-8.038-10.191c8.34-14.625,10.432-18.595,10.752-28h-15.9A25.567,25.567,0,0,1,257.7,308.879V206.892a25.568,25.568,0,0,1,25.539-25.539h76.047A141.414,141.414,0,0,0,192.945,67.514l-.048.01C127.916,80.248,78.73,137.618,78.73,206.269v189.4a28.99,28.99,0,0,1-15.022,25.816,16.531,16.531,0,0,0-8.391,14.293v5.272a11.166,11.166,0,0,0,11.168,11.139h307.29a11.152,11.152,0,0,0,11.14-11.139V435.78a16.558,16.558,0,0,0-8.381-14.3A28.951,28.951,0,0,1,361.5,395.671Zm127.95-188.779a11.549,11.549,0,0,0-11.537-11.535H283.241A11.549,11.549,0,0,0,271.7,206.892V308.879a11.549,11.549,0,0,0,11.537,11.535h22.9a7,7,0,0,1,7,6.873c.225,12.224-.658,18.43-4.286,26.5,14.943-5.9,19.285-12.246,24.395-28.477a7,7,0,0,1,6.678-4.9H477.915a11.549,11.549,0,0,0,11.537-11.535Zm-150.6,50.994a25.426,25.426,0,1,1-25.426-25.427A25.454,25.454,0,0,1,338.854,257.886Zm-14,0a11.423,11.423,0,1,0-11.423,11.422A11.435,11.435,0,0,0,324.851,257.886Zm81.152,0a25.425,25.425,0,1,1-25.425-25.427A25.453,25.453,0,0,1,406,257.886Zm-14,0a11.423,11.423,0,1,0-11.423,11.422A11.435,11.435,0,0,0,392,257.886Zm81.152,0a25.426,25.426,0,1,1-25.426-25.427A25.454,25.454,0,0,1,473.153,257.886Zm-14,0a11.424,11.424,0,1,0-11.424,11.422A11.436,11.436,0,0,0,459.151,257.886Z"/></svg>
