<svg id="Layer_1" data-name="Layer 1" xmlns="http://www.w3.org/2000/svg" viewBox="0 0 508.33 383.45"><defs><style>.cls-1{fill:#fd7878;}.cls-2{fill:#fff;}.cls-3{fill:#fe0000;}.cls-4{fill:#fd2828;}.cls-5{fill:#fefefe;}.cls-6{fill:#fe0101;}</style></defs><path class="cls-1" d="M706.26,732l0-.27a1.78,1.78,0,0,1,1.24-.36c.52,0,1,0,1.56,0h500c.94,0,1.93-.26,2.79.37l0,.26Z" transform="translate(-706.26 -348.5)"/><path class="cls-2" d="M1091.27,489.8a68.27,68.27,0,0,0-1,11.63,44.52,44.52,0,0,0,88.22,7.64c4.83-23.71-11.26-47.56-35-52.17a41.86,41.86,0,0,0-26.87,3.78c-8.52,4.12-16,9.68-23.2,15.8-11.54,9.89-21.84,21-31.91,32.33-9.88,11.12-19.31,22.62-29.32,33.62-5.91,6.51-11.73,13.13-18.42,18.87a77.43,77.43,0,0,1-42.33,18.54,78.83,78.83,0,0,1-52.81-12.2c-.31-.2-.58-.55-1.15-.51v6.08c0,2.16,0,4.32,0,6.48,0,.61-.06.93-.82.92q-16.85,0-33.7,0c-.74,0-.83-.3-.83-.92,0-3.52,0-7,0-10.56q0-18.36,0-36.71a2.25,2.25,0,0,1,.51-1.65c8.84-10.16,17.24-20.7,26.22-30.74,3-3.4,6.15-6.73,9.38-9.95.14-.13.3-.25.56-.46a44.48,44.48,0,0,0-1.25,13.44c1,14.28,7.27,25.68,18.88,34A43.31,43.31,0,0,0,985,538.26c11-6.94,20.59-15.65,29.48-25.13,9.52-10.15,18.25-21,27.25-31.6,8.87-10.46,17.92-20.78,28.18-29.92,5.58-5,10.87-10.28,16.85-14.78a79,79,0,0,1,40.29-15.69,79.85,79.85,0,0,1,34.32,154.75c-41.21,14.69-87.07-7.09-101.78-48.3a1.94,1.94,0,0,1,.45-2.21c8.36-9.8,16.41-19.84,25.19-29.27C1087.22,494,1089.26,491.9,1091.27,489.8Z" transform="translate(-706.26 -348.5)"/><path class="cls-2" d="M1004.86,510.92a50.7,50.7,0,0,0,.79-14.11c-1.63-15.68-9.32-27.46-23-35.24a40.71,40.71,0,0,0-23.83-5.32,44.45,44.45,0,0,0-16,4.91c-8.36,4.15-15.75,9.72-22.78,15.79-11.61,10-22,21.29-32.16,32.76-10.57,11.94-20.68,24.29-31.51,36A150.82,150.82,0,0,1,835.59,565a77.71,77.71,0,0,1-37.65,14.82,79.81,79.81,0,0,1-86.79-59.57C700,477,727.32,432.38,770.91,422.7a79.9,79.9,0,0,1,92.57,50.41,1.92,1.92,0,0,1-.37,2.2c-8.84,10.33-17.34,20.94-26.59,30.91-1.46,1.57-2.95,3.12-4.61,4.86.3-2,.6-3.78.82-5.55,2.76-22.09-12.39-43.49-34.2-48.33A44.53,44.53,0,0,0,745,491.28c-5.37,24.11,10.9,48.67,35.17,53a44.46,44.46,0,0,0,33.37-6.87,154.57,154.57,0,0,0,27.25-23.35c10.18-10.75,19.42-22.3,29-33.57,10.06-11.82,20.45-23.33,32.35-33.37,3.36-2.84,6.37-6.06,9.82-8.8a78.13,78.13,0,0,1,40-16.93c21-2.48,40.34,2.11,57.41,14.87,12.81,9.57,21.56,22.19,27,37.16a1.31,1.31,0,0,1-.2,1.51c-9.22,10.78-18.09,21.87-27.79,32.24C1007.24,508.46,1006,509.68,1004.86,510.92Z" transform="translate(-706.26 -348.5)"/><path class="cls-3" d="M1211.87,731.69l-1.55,0H707.85l-1.56,0V690.2a2.47,2.47,0,0,1,1.29-.12h503a2.47,2.47,0,0,1,1.29.12c0,1.84,0,3.68,0,5.52q0,17.32,0,34.65C1211.91,730.81,1211.89,731.25,1211.87,731.69Z" transform="translate(-706.26 -348.5)"/><path class="cls-2" d="M917.33,348.51a2.35,2.35,0,0,1,.11,1.26q0,36.93,0,73.87a2.08,2.08,0,0,1-1,2,219.16,219.16,0,0,0-33.88,28.11,1.73,1.73,0,0,1-.29.23c-.36-.28-.17-.66-.17-1q0-36.41,0-72.8a2,2,0,0,1,.7-1.66q16.92-14.79,33.82-29.61C916.82,348.74,917,348.46,917.33,348.51Z" transform="translate(-706.26 -348.5)"/><path class="cls-2" d="M1064.58,662.69a24.36,24.36,0,0,1-6.87,3.1,21.87,21.87,0,0,1-27.32-18.19,25.12,25.12,0,0,1-.16-3.36c0-6.79,0-13.59,0-20.39,0-.92.24-1.12,1.12-1.1q3.6.09,7.2,0c.89,0,1.13.2,1.12,1.11,0,7-.06,14,0,21a12.23,12.23,0,0,0,10.29,12,12.45,12.45,0,0,0,14.64-12.18c.06-6.92,0-13.84,0-20.76,0-1,.24-1.26,1.24-1.23,2.39.09,4.79.06,7.19,0,.71,0,1,.13,1,.91,0,14.43.07,28.87-.07,43.3a21.63,21.63,0,0,1-20.59,21.36c-.89,0-1.24-.11-1.21-1.11.08-2.44.05-4.88,0-7.32,0-.69.14-.94.9-1a12.44,12.44,0,0,0,11.59-12C1064.62,665.58,1064.58,664.26,1064.58,662.69Z" transform="translate(-706.26 -348.5)"/><path class="cls-2" d="M815.82,622.78a22,22,0,0,0-13.43,3.81v-1.44q0-6.95,0-13.91c0-.54.06-1-.76-1-2.64.05-5.28,0-7.91,0-.59,0-.77.16-.74.74,0,1,0,1.92,0,2.88,0,10.47-.14,20.94.06,31.41A21.79,21.79,0,0,0,819.3,666.1a22.52,22.52,0,0,0,17.36-19.69C837.66,634.27,828,623.11,815.82,622.78Zm-1,34.3a12.48,12.48,0,0,1,.1-25,12.48,12.48,0,1,1-.1,25Z" transform="translate(-706.26 -348.5)"/><path class="cls-2" d="M1098.16,623.1c-8.3,1.54-14.08,6.45-16.79,14.38s-1.3,15.41,4.4,21.77a21.79,21.79,0,0,0,31,1.57c.61-.57.77-.89.06-1.55-1.81-1.69-3.55-3.47-5.26-5.25-.52-.54-.77-.49-1.31,0a12.48,12.48,0,0,1-19.86-4.82,2,2,0,0,1-.27-1.44h31.27c2.42,0,2.42,0,2.5-2.43A21.8,21.8,0,0,0,1098.16,623.1Zm-6.77,15.21c1.23-3.17,6-6,10-6.2,5.18-.25,9.64,3,11.2,6.2Z" transform="translate(-706.26 -348.5)"/><path class="cls-2" d="M939.69,626.58a23.26,23.26,0,0,1,7-3.15,21.85,21.85,0,0,1,27.19,18.51,25,25,0,0,1,.12,3.12c0,6.76,0,13.51,0,20.27,0,1-.28,1.18-1.19,1.16q-3.54-.11-7.07,0c-.92,0-1.13-.24-1.12-1.13q.06-10.32,0-20.63a12.48,12.48,0,1,0-24.95-.22c-.07,6.91,0,13.83,0,20.75,0,1-.24,1.27-1.24,1.23-2.31-.08-4.64-.08-7,0-1,0-1.24-.23-1.24-1.23,0-14.84,0-29.67,0-44.51,0-3.16,0-6.32,0-9.48,0-.76.16-1,1-1,2.48.05,5,.06,7.43,0,.9,0,1,.3,1,1.08C939.68,616.35,939.69,621.35,939.69,626.58Z" transform="translate(-706.26 -348.5)"/><path class="cls-2" d="M1023.89,643.62a21.44,21.44,0,0,0-19-20.68,21.9,21.9,0,1,0,8.86,40.32c.25-.16.46-.45.95-.35,0,.92,0,1.87,0,2.81,0,.56.13.77.72.76q3.9,0,7.8,0c.6,0,.83-.14.83-.8C1024,658.33,1024.16,651,1023.89,643.62Zm-21.82,13.5a12.49,12.49,0,0,1,.13-25,12.49,12.49,0,1,1-.13,25Z" transform="translate(-706.26 -348.5)"/><path class="cls-2" d="M886.64,644.75a22.94,22.94,0,0,0-.34-4.06,21.87,21.87,0,0,0-43.15,7.1,22,22,0,0,0,34.14,14.86c0,1.09.05,2,0,2.84s.16,1,1,1c2.44-.06,4.88-.07,7.31,0,.91,0,1.11-.23,1.11-1.12C886.62,658.5,886.63,651.62,886.64,644.75Zm-21.92,12.37a12.49,12.49,0,1,1,12.56-12.41A12.37,12.37,0,0,1,864.72,657.12Z" transform="translate(-706.26 -348.5)"/><path class="cls-2" d="M1211.89,644.06a21.83,21.83,0,0,0-43.49-2.14c-2,14.74,11.53,27.25,26.11,24.16a23.24,23.24,0,0,0,8.06-3.41c0,1.12,0,2,0,2.88s.19,1,.93.93c2.51,0,5-.05,7.55,0,.8,0,.89-.28.89-1C1211.9,658.37,1212,651.21,1211.89,644.06ZM1190,657.12a12.49,12.49,0,1,1,12.57-12.27A12.42,12.42,0,0,1,1190,657.12Z" transform="translate(-706.26 -348.5)"/><path class="cls-2" d="M752.36,644.16a21.82,21.82,0,1,0-18.81,22.14,22.79,22.79,0,0,0,9.51-3.63c0,1.13.05,2,0,2.88s.2,1,.94.93q3.71-.06,7.43,0c.78,0,1-.21,1-1C752.37,658.38,752.48,651.27,752.36,644.16Zm-21.86,13a12.49,12.49,0,1,1,12.55-12.41A12.42,12.42,0,0,1,730.5,657.12Z" transform="translate(-706.26 -348.5)"/><path class="cls-2" d="M913.6,622.77c3.08,0,6.16.06,9.23,0,1.12,0,1.3.33,1.26,1.32-.07,2.32-.06,4.64,0,7,0,.87-.17,1.13-1.09,1.12-5.48,0-11,0-16.43,0a9.69,9.69,0,0,0-3.42.5,1.52,1.52,0,0,0-.7,2.65,7.4,7.4,0,0,0,2.85,1.93,48.7,48.7,0,0,0,8.08,2.58,36.07,36.07,0,0,1,5.52,1.92c5.06,2.25,7.55,5.51,7,12.29-.7,7.9-5.5,12.18-13.84,12.41-6.11.17-12.22,0-18.34.08-.75,0-.81-.3-.81-.91,0-2.52,0-5,0-7.55,0-.86.31-.95,1-.95,5.27,0,10.55,0,15.82,0a11.66,11.66,0,0,0,4.46-.75,2.74,2.74,0,0,0,2-2.29,2.83,2.83,0,0,0-1.67-2.81,19.92,19.92,0,0,0-4.89-1.56,88.08,88.08,0,0,1-9.17-3.07c-6.42-2.59-8-7.59-7.47-13.12a16.19,16.19,0,0,1,.72-3.64c1.48-4.42,5.09-6.9,10.46-7,3.16-.08,6.32,0,9.47,0Z" transform="translate(-706.26 -348.5)"/><path class="cls-3" d="M868.35,546.55v1.26q0,15.77,0,31.52c0,1-.18,1.3-1.22,1.29q-16.47-.06-32.95,0c-1,0-1.19-.34-1.24-1.28a3.24,3.24,0,0,1,1.45-3c11-8.66,22-17.33,31.63-27.48C866.73,548.15,867.44,547.47,868.35,546.55Z" transform="translate(-706.26 -348.5)"/><path class="cls-3" d="M1214.55,546.84v.69q0,16,0,32c0,.81-.16,1.07-1,1.07q-16.61,0-33.2,0c-.93,0-1-.28-1.11-1.13a3.42,3.42,0,0,1,1.57-3.27c8.27-6.66,16.83-13,24.42-20.46,3-3,6-6.13,8.92-9.2Z" transform="translate(-706.26 -348.5)"/><path class="cls-2" d="M1130.1,653.48c.16-3.51-.26-7.83.23-12.14,1-9,9.29-17.26,18.31-18.35,6.75-.81,12.74.76,17.88,5.32.75.66.9,1.05.06,1.81-1.76,1.62-3.43,3.36-5.09,5.08-.48.49-.73.59-1.32.08a11.68,11.68,0,0,0-13.27-2.06,11.9,11.9,0,0,0-7.42,11.47q-.06,10.32,0,20.63c0,.94-.23,1.2-1.17,1.17-2.43-.07-4.87,0-7.31,0-.74,0-.94-.19-.93-.93C1130.12,661.8,1130.1,658,1130.1,653.48Z" transform="translate(-706.26 -348.5)"/><path class="cls-2" d="M758.64,638.38c0-9,0-18,0-27,0-.85.14-1.18,1.09-1.15,2.47.08,4.95.06,7.43,0,.75,0,.92.22.92.94q0,27.15,0,54.31c0,.83-.29,1-1,1-2.44,0-4.88-.06-7.31,0-.93,0-1.12-.26-1.11-1.14C758.65,656.36,758.64,647.37,758.64,638.38Z" transform="translate(-706.26 -348.5)"/><path class="cls-4" d="M1211.87,690.2H706.3c.35-.5.86-.23,1.28-.23h502.88C1210.93,690,1211.48,689.68,1211.87,690.2Z" transform="translate(-706.26 -348.5)"/><path class="cls-5" d="M1157.55,711.46V701.8c0-2.42,0-2.42,2.46-2.46,2.66,0,2.66,0,2.66,2.63,0,6.35-.05,12.71,0,19.06,0,1-.26,1.42-1.24,1.37-.32,0-.64.06-1,.07a3.18,3.18,0,0,1-3.36-1.82c-1.92-3.53-4.09-6.93-6.17-10.4-.39.22-.2.58-.2.85,0,3.32,0,6.64,0,9.95,0,.89-.19,1.25-1.15,1.34-4,.35-4,.39-4-3.53,0-6.08,0-12.15,0-18.23,0-.79.16-1.2,1-1.19.32,0,.64-.07,1-.09a3.38,3.38,0,0,1,3.74,2c1.81,3.5,4,6.81,6,10.2Z" transform="translate(-706.26 -348.5)"/><path class="cls-5" d="M1114.54,722.64c-5.75,0-9.37-3.61-9.84-9.83a19.28,19.28,0,0,1,.49-6.42,9.71,9.71,0,0,1,18.89.42,19.07,19.07,0,0,1,.06,8C1123.09,719.88,1119.72,722.65,1114.54,722.64Z" transform="translate(-706.26 -348.5)"/><path class="cls-5" d="M887.22,711a14.93,14.93,0,0,1-1.28,6.52,8.45,8.45,0,0,1-7.55,5.05c-6.52.38-10.52-3.21-10.95-9.74a19.56,19.56,0,0,1,.47-6.42c1.29-4.84,4.74-7.44,9.73-7.29s8.28,3.08,9.23,8A21.59,21.59,0,0,1,887.22,711Z" transform="translate(-706.26 -348.5)"/><path class="cls-5" d="M971.9,707.54c0,2.13-.1,4.57.14,7s1.37,3.38,3.71,3.06a2.23,2.23,0,0,0,2-1.66,7.21,7.21,0,0,0,.32-2.12c0-4.36.05-8.72,0-13.07,0-.91.22-1.25,1.16-1.3a21.78,21.78,0,0,1,3.7,0c.59.06.83.23.81.86-.1,4.91.19,9.83-.18,14.74s-3.07,7.43-8,7.5a15.39,15.39,0,0,1-2.63-.1c-3.88-.6-5.92-2.85-6.42-6.91a78.27,78.27,0,0,1-.2-8.39c0-2.23,0-4.47,0-6.71,0-.73.2-.94.92-1a18.53,18.53,0,0,1,3.94,0c.63.06.78.31.77.9C971.88,702.67,971.9,705,971.9,707.54Z" transform="translate(-706.26 -348.5)"/><path class="cls-5" d="M794.4,707.7c0-2.39,0-4.79,0-7.19,0-.69.16-1,.9-1a26.88,26.88,0,0,1,3.7,0c1,0,1.06.46,1,1.26,0,4,0,8.08,0,12.11a10.14,10.14,0,0,0,.36,3c.43,1.4,1.19,1.89,2.82,1.86s2.25-.52,2.65-1.91a11.74,11.74,0,0,0,.35-3.44c0-3.88,0-7.76,0-11.63,0-.88.24-1.15,1.1-1.22a20.31,20.31,0,0,1,3.82.06c.49.06.7.18.69.71-.13,5.15.28,10.32-.24,15.46-.44,4.38-3.11,6.78-7.54,6.92a12.64,12.64,0,0,1-4.85-.54c-3.28-1.2-4.33-3.89-4.64-7C794.31,712.58,794.42,710.14,794.4,707.7Z" transform="translate(-706.26 -348.5)"/><path class="cls-5" d="M772.73,722.47c-2.93,0-2.93,0-3.6-2.49-.53-2-.53-2-2.5-1.74a8.72,8.72,0,0,1-3.34-.13c-.92-.27-1.32,0-1.42.94a7.23,7.23,0,0,1-.34,1.27c-.56,2-.56,2.07-2.67,2.13-.79,0-1.59-.09-2.39-.13s-.88-.32-.64-1.07c2-6.31,4-12.63,5.94-19l.18-.57c.72-2.32.72-2.32,3.14-2.38,3.34-.1,3.35-.1,4.32,3,1.92,6.21,3.81,12.43,5.78,18.62.32,1,.2,1.39-.89,1.35A12.39,12.39,0,0,0,772.73,722.47Z" transform="translate(-706.26 -348.5)"/><path class="cls-5" d="M944.73,722.46c-3,.09-3,.09-3.73-2.65-.51-1.82-.51-1.8-2.42-1.57a9.53,9.53,0,0,1-3.57-.16c-.65-.17-1.08-.09-1.16.7a7.27,7.27,0,0,1-.35,1.27c-.68,2.48-.68,2.48-3.29,2.42-2.85-.08-2.84-.08-2-2.75,2-6.35,4-12.7,5.95-19.06.25-.79.57-1.28,1.45-1.2a2,2,0,0,0,.48-.06,8,8,0,0,1,3.91.21c1.26.53,1.09,2.15,1.46,3.3,1.92,6,3.73,12,5.62,18,.32,1,.23,1.49-.94,1.43A9.54,9.54,0,0,0,944.73,722.46Z" transform="translate(-706.26 -348.5)"/><path class="cls-5" d="M1016,722.61c-8.24.2-12.06-6-11.25-13.41.47-4.3,2.4-7.72,6.62-9.33a13.63,13.63,0,0,1,9.38.16.73.73,0,0,1,.58,1,18.42,18.42,0,0,1-1,3.2c-.21.59-.47.68-1.07.47a9.53,9.53,0,0,0-3.4-.57,4.72,4.72,0,0,0-4.89,3.61,10.93,10.93,0,0,0,.05,6.6,4.53,4.53,0,0,0,4.14,3.28,9.46,9.46,0,0,0,4.35-.52c.57-.21.86-.11,1.07.48a32.6,32.6,0,0,1,1,3.2c.15.6,0,.86-.58,1A14.39,14.39,0,0,1,1016,722.61Z" transform="translate(-706.26 -348.5)"/><path class="cls-5" d="M843.09,713.47c0,2.56,0,5.12,0,7.68,0,.9-.29,1.15-1.14,1.22-4.48.39-4.48.41-4.48-4s0-8.56,0-12.84c0-.92-.25-1.17-1.13-1.11-1.11.08-2.24,0-3.36,0-.57,0-.85-.12-.94-.75a11.94,11.94,0,0,1,0-3.58c.08-.52.3-.62.78-.62q7.36,0,14.75,0c.6,0,.83.17.89.8a20.82,20.82,0,0,1,0,3.35c-.06.61-.31.82-.91.8-1.2,0-2.4,0-3.59,0-.77,0-.95.25-.94,1C843.11,708.11,843.09,710.79,843.09,713.47Z" transform="translate(-706.26 -348.5)"/><path class="cls-5" d="M1052.15,713.35c0,2.64,0,5.28,0,7.92,0,.8-.27,1-1,1.09-4.6.49-4.6.5-4.6-4.08,0-4.11-.06-8.23,0-12.35,0-1.29-.39-1.58-1.54-1.47-1,.1-2,0-3,0-.68,0-.88-.25-1-.89-.51-3.79-.31-4.05,3.4-4.05,4,0,8,0,12,0,.78,0,1.07.25,1.12,1a17.43,17.43,0,0,1-.06,3.23c-.08.61-.34.79-.93.76-1.12,0-2.24,0-3.36,0-.85-.05-1.17.15-1.14,1.09C1052.2,708.15,1052.15,710.75,1052.15,713.35Z" transform="translate(-706.26 -348.5)"/><path class="cls-5" d="M1083.55,710.82c0,3.48,0,6.95,0,10.42,0,.78-.22,1-1,1.12a21.19,21.19,0,0,1-3.82,0c-.58-.06-.82-.28-.82-.91q0-10.53,0-21.08c0-.63.22-.79.81-.86a18.44,18.44,0,0,1,3.93,0c.76.08.88.38.88,1C1083.54,704,1083.55,707.39,1083.55,710.82Z" transform="translate(-706.26 -348.5)"/><path class="cls-3" d="M1118.61,711a10.76,10.76,0,0,1-.68,4.46,3.34,3.34,0,0,1-3.38,2.35,3.28,3.28,0,0,1-3.36-2.39,13.48,13.48,0,0,1,0-8.93,3.31,3.31,0,0,1,3.38-2.37,3.35,3.35,0,0,1,3.34,2.41,7.87,7.87,0,0,1,.39,1.25A12.45,12.45,0,0,1,1118.61,711Z" transform="translate(-706.26 -348.5)"/><path class="cls-3" d="M881.36,710.93a11.69,11.69,0,0,1-.73,4.58,3.37,3.37,0,0,1-3.31,2.3,3.24,3.24,0,0,1-3.33-2.24,13,13,0,0,1,0-9.25,3.27,3.27,0,0,1,3.37-2.21,3.33,3.33,0,0,1,3.22,2.24A11.55,11.55,0,0,1,881.36,710.93Z" transform="translate(-706.26 -348.5)"/><path class="cls-6" d="M765.54,706c.62,2.43,1.22,4.85,1.84,7.28.1.38-.09.49-.41.55s-.46.11-.7.14c-2.69.33-3,0-2.35-2.59.48-1.8,1-3.61,1.43-5.42Z" transform="translate(-706.26 -348.5)"/><path class="cls-6" d="M937.36,705.53c.67,2.74,1.23,5.14,1.86,7.52.14.54,0,.71-.49.78-.28,0-.55.1-.83.12-2.54.19-2.72,0-2.1-2.45C936.28,709.62,936.78,707.74,937.36,705.53Z" transform="translate(-706.26 -348.5)"/></svg>